<?xml version="1.0" encoding="utf-8"?>
<!-- Generator: Adobe Illustrator 26.5.0, SVG Export Plug-In . SVG Version: 6.00 Build 0)  -->
<svg version="1.1" id="_Слой_1" xmlns="http://www.w3.org/2000/svg" xmlns:xlink="http://www.w3.org/1999/xlink" x="0px"
	 y="0px" viewBox="0 0 1820.7 292.5" style="enable-background:new 0 0 1820.7 292.5;" xml:space="preserve">
<style type="text/css">
	.st0{fill:url(#SVGID_1_);}
	.st1{fill:#FFFFFF;}
</style>
<g>
	
		<linearGradient id="SVGID_1_" gradientUnits="userSpaceOnUse" x1="101.2776" y1="468.5225" x2="297.9225" y2="665.1775" gradientTransform="matrix(1 0 0 1 0 -372)">
		<stop  offset="0" style="stop-color:#FFFFFF"/>
		<stop  offset="0.71" style="stop-color:#007F67"/>
	</linearGradient>
	<rect x="99.3" y="98.5" class="st0" width="200.6" height="192.7"/>
	<g>
		<polygon class="st1" points="0,0 0,27 0,292.5 27,292.5 27,27 300,27 300,0 		"/>
	</g>
	<polygon class="st1" points="50,51.5 50,76.5 50,292.5 77,292.5 77,76.5 300,76.5 300,49.5 50,49.5 	"/>
	<path class="st1" d="M411.6,97.7c12.5,0,23.6,1.6,33.4,4.9c9.8,3.2,18.1,7.9,24.9,14s12.1,13.5,15.7,22.4s5.4,18.8,5.4,29.9
		c0,23.1-7.1,40.8-21.2,52.9S436.2,240,411.6,240h-26.5v50.4h-55.2V97.7H411.6L411.6,97.7z M385.1,193.5h22.6
		c9.2,0,16.2-2.1,20.9-6.3c4.7-4.2,7.1-10.3,7.1-18.4c0-16.3-9.3-24.4-28-24.4h-22.6V193.5L385.1,193.5z"/>
	<path class="st1" d="M606.8,97.1l70.1,193.2h-59.1l-9.5-32.9h-62.7l-9.8,32.9h-59.3l72.7-193.2L606.8,97.1L606.8,97.1z
		 M558.5,214.5H596l-18.2-64.2L558.5,214.5L558.5,214.5z"/>
	<path class="st1" d="M788.4,97.7c11.8,0,22,1.3,30.6,4s15.7,6.3,21.3,11.1c5.7,4.7,9.8,10.4,12.6,17.1c2.7,6.7,4.1,14,4.1,22.1
		c0,8.6-1.6,16.1-4.9,22.5c-3.2,6.4-8,11.4-14.4,14.8c8.2,3.4,14.7,8.7,19.5,15.8s7.2,16.1,7.2,27.1c0,8.6-1.3,16.4-4,23.6
		s-6.9,13.4-12.8,18.5s-13.5,9.1-22.9,11.9c-9.3,2.8-20.6,4.2-33.8,4.2h-86.6V97.7H788.4L788.4,97.7z M759.1,172.7h27.6
		c5.5,0,9.5-1.4,12.1-4.1s4-6.3,4-10.8s-1.3-8-3.8-10.7c-2.5-2.6-6.8-4-12.8-4h-27.1V172.7z M759.1,245.1H790
		c7.3,0,12.4-1.4,15.3-4.2s4.3-6.7,4.3-11.7s-1.5-9.1-4.5-11.8s-8-4.1-15.2-4.1H759L759.1,245.1L759.1,245.1z"/>
	<polygon class="st1" points="1061,97.7 1059.4,97.7 1006,97.7 943.4,206.8 943.4,97.7 888.6,97.7 888.6,290.3 943.4,290.3 
		1006.3,181.4 1006.3,290.3 1061,290.3 1061,144.7 1114.1,144.7 1114.1,290.3 1169.3,290.3 1169.3,144.7 1224.3,144.7 1224.3,97.7 	
		"/>
	<path class="st1" d="M1727.8,95.3c14,0,26.8,2.3,38.2,6.9c11.4,4.6,21.2,11.3,29.3,19.9s14.4,19.1,18.8,31.3
		c4.4,12.2,6.6,26.1,6.6,41.5s-2.2,29.2-6.7,41.5c-4.5,12.2-10.7,22.7-18.8,31.3s-17.8,15.3-29.2,19.9c-11.4,4.6-24.1,6.9-38.2,6.9
		s-26.8-2.3-38.2-6.9c-11.4-4.6-21.1-11.2-29.2-19.8c-8.1-8.6-14.3-19-18.6-31.3c-4.4-12.3-6.6-26.2-6.6-41.6s2.2-29.2,6.6-41.5
		c4.4-12.2,10.6-22.7,18.8-31.3s17.9-15.3,29.3-19.9C1701.3,97.6,1713.9,95.3,1727.8,95.3L1727.8,95.3z M1727.8,143.1
		c-11.1,0-20.1,4.3-27,12.8c-6.8,8.6-10.3,21.6-10.3,39s3.5,30.7,10.5,39.2s15.9,12.7,26.7,12.7s20.4-4.2,27.2-12.7
		s10.3-21.5,10.3-39.2c0-8.7-0.9-16.4-2.7-22.9c-1.8-6.5-4.4-11.9-7.7-16.2c-3.3-4.3-7.3-7.5-11.9-9.6S1733.2,143.1,1727.8,143.1
		L1727.8,143.1z"/>
	<path class="st1" d="M1497.9,98.6V171h61.7V98.6h55v192.7h-55v-72.7h-61.7v72.7h-55.2V98.6H1497.9z"/>
	<polygon class="st1" points="1365.9,98.6 1303.3,207.7 1303.3,98.6 1248.5,98.6 1248.5,291.2 1303.3,291.2 1366.2,182.3 
		1366.2,291.2 1419.2,291.2 1419.2,98.6 	"/>
</g>
</svg>
